<?xml version="1.0" standalone="no"?>
<!DOCTYPE svg PUBLIC "-//W3C//DTD SVG 20010904//EN" "http://www.w3.org/TR/2001/REC-SVG-20010904/DTD/svg10.dtd">
<svg version="1.0" xmlns="http://www.w3.org/2000/svg" width="16" height="16" viewBox="0 0 320.000000 512.000000" preserveAspectRatio="xMidYMid meet">

<g transform="translate(0.000000,512.000000) scale(0.100000,-0.100000)"
fill="#ffffff" stroke="none">
    <path d="M2052 5109 c-522 -71 -864 -380 -973 -881 -30 -139 -39 -289 -39
    -685 l0 -373 -405 0 -405 0 0 -465 0 -465 405 0 405 0 0 -1120 0 -1120 500 0
    500 0 0 1120 0 1120 375 0 375 0 5 23 c7 32 135 879 135 895 0 9 -96 12 -446
    12 l-446 0 5 353 c4 290 8 363 22 412 49 175 177 287 364 321 49 8 159 13 309
    14 l232 0 0 394 0 394 -77 11 c-287 41 -691 60 -841 40z"/>
</g>
</svg>
